<svg width="14" height="13" viewBox="0 0 14 13" fill="none" xmlns="http://www.w3.org/2000/svg">
<path d="M13.8001 10.7557L8.33444 1.26379C8.19785 1.03124 8.00287 0.838428 7.76881 0.704454C7.53476 0.57048 7.26975 0.5 7.00006 0.5C6.73037 0.5 6.46536 0.57048 6.23131 0.704454C5.99725 0.838428 5.80227 1.03124 5.66569 1.26379L0.20006 10.7557C0.0686451 10.9806 -0.000610352 11.2364 -0.000610352 11.4969C-0.000610352 11.7574 0.0686451 12.0132 0.20006 12.2382C0.334892 12.4721 0.529541 12.666 0.764036 12.7999C0.99853 12.9338 1.26442 13.0028 1.53444 13H12.4657C12.7355 13.0026 13.0011 12.9334 13.2354 12.7996C13.4696 12.6657 13.6641 12.4719 13.7988 12.2382C13.9304 12.0134 13.9999 11.7576 14.0001 11.4971C14.0003 11.2366 13.9313 10.9807 13.8001 10.7557ZM6.50006 5.50004C6.50006 5.36743 6.55274 5.24026 6.64651 5.14649C6.74027 5.05272 6.86745 5.00004 7.00006 5.00004C7.13267 5.00004 7.25985 5.05272 7.35361 5.14649C7.44738 5.24026 7.50006 5.36743 7.50006 5.50004V8.00004C7.50006 8.13265 7.44738 8.25983 7.35361 8.35359C7.25985 8.44736 7.13267 8.50004 7.00006 8.50004C6.86745 8.50004 6.74027 8.44736 6.64651 8.35359C6.55274 8.25983 6.50006 8.13265 6.50006 8.00004V5.50004ZM7.00006 11C6.85172 11 6.70672 10.9561 6.58338 10.8736C6.46005 10.7912 6.36392 10.6741 6.30715 10.5371C6.25038 10.4 6.23553 10.2492 6.26447 10.1037C6.29341 9.95824 6.36484 9.8246 6.46973 9.71971C6.57462 9.61482 6.70826 9.54339 6.85374 9.51445C6.99923 9.48551 7.15003 9.50037 7.28707 9.55713C7.42412 9.6139 7.54125 9.71003 7.62366 9.83336C7.70607 9.9567 7.75006 10.1017 7.75006 10.25C7.75006 10.449 7.67104 10.6397 7.53039 10.7804C7.38974 10.921 7.19897 11 7.00006 11Z" fill="#FB7185"/>
</svg>
